<html>
<head>
<meta charset="UTF-8">
<meta name="viewport" content="width=device-width, initial-scale=1.0"/>

<style>
.comment
{
    padding-left: 20px;
    margin-top: 4px;
    margin-right: 4px;
    margin-bottom: 4px;
    border: 2px #000 solid;
}
.submission
{
    border: 4px #00f solid;
    padding-left: 20px;
}
.hidden
{
    display: none;
}
</style>
</head>
<body><div class="submission" id="t3_5x2aiv">
    <p class="userinfo">
        <a href="https://www.reddit.com/u/jodorowsthesky">jodorowsthesky</a>
        <span class="score"> | 24 points</span>
        <span class="timestamp"> | Mar 02 2017 09:24:24</span>
    </p>
    <strong>[MOVIE] Naked Lunch (1991) [1080p][x264][2.19GB]</strong>
    <p><p>.nz/#!bBxjiSZB!YPW8e_k2IKVOu8XQ4WP8VoW5lRDg-ZPY6FXp87EviGA  </p>
<pre><code>Format                                   : MPEG-4
Format profile                           : Base Media
Codec ID                                 : isom (isom/iso2/avc1/mp41)
File size                                : 2.20 GiB
Duration                                 : 1 h 55 min
Overall bit rate                         : 2 731 kb/s
Movie name                               : Naked.Lunch.1991.1080p.BluRay.H264.AAC-RARBG
Encoded date                             : UTC 2015-12-13 09:04:46
Tagged date                              : UTC 2015-12-13 09:04:46
Writing application                      : Lavf56.40.101
Comment                                  : Naked.Lunch.1991.1080p.BluRay.H264.AAC-RARBG

Video
ID                                       : 1
Format                                   : AVC
Format/Info                              : Advanced Video Codec
Format profile                           : High@L4.1
Format settings, CABAC                   : Yes
Format settings, ReFrames                : 4 frames
Codec ID                                 : avc1
Codec ID/Info                            : Advanced Video Coding
Duration                                 : 1 h 55 min
Bit rate                                 : 2 500 kb/s
Width                                    : 1 920 pixels
Height                                   : 1 080 pixels
Display aspect ratio                     : 16:9
Frame rate mode                          : Constant
Frame rate                               : 24.000 FPS
Color space                              : YUV
Chroma subsampling                       : 4:2:0
Bit depth                                : 8 bits
Scan type                                : Progressive
Bits/(Pixel*Frame)                       : 0.050
Stream size                              : 2.01 GiB (92%)
Writing library                          : x264 core 148 r2638M 7599210
Encoding settings                        : cabac=1 / ref=4 / deblock=1:-1:-1 / analyse=0x3:0x113 / me=umh / subme=9 / psy=1 / psy_rd=1.00:0.15 / mixed_ref=1 / me_range=24 / chroma_me=1 / trellis=2 / 8x8dct=1 / cqm=0 / deadzone=21,11 / fast_pskip=1 / chroma_qp_offset=-3 / threads=32 / lookahead_threads=4 / sliced_threads=0 / nr=0 / decimate=1 / interlaced=0 / bluray_compat=0 / constrained_intra=0 / bframes=3 / b_pyramid=2 / b_adapt=2 / b_bias=0 / direct=3 / weightb=1 / open_gop=0 / weightp=2 / keyint=250 / keyint_min=25 / scenecut=40 / intra_refresh=0 / rc_lookahead=50 / rc=2pass / mbtree=1 / bitrate=2500 / ratetol=1.0 / qcomp=0.60 / qpmin=0 / qpmax=69 / qpstep=4 / cplxblur=20.0 / qblur=0.5 / vbv_maxrate=31250 / vbv_bufsize=31250 / nal_hrd=none / filler=0 / ip_ratio=1.40 / aq=3:1.00
Encoded date                             : UTC 2015-12-13 09:04:46
Tagged date                              : UTC 2015-12-13 09:04:46

Audio
ID                                       : 2
Format                                   : AAC
Format/Info                              : Advanced Audio Codec
Format profile                           : LC
Codec ID                                 : 40
Duration                                 : 1 h 55 min
Bit rate mode                            : Constant
Bit rate                                 : 224 kb/s
Channel(s)                               : 2 channels
Channel(s)_Original                      : 6 channels
Channel positions                        : Front: L C R, Side: L R, LFE
Sampling rate                            : 48.0 kHz
Frame rate                               : 46.875 FPS (1024 spf)
Compression mode                         : Lossy
Stream size                              : 184 MiB (8%)
Language                                 : English
Default                                  : Yes
Alternate group                          : 1
Encoded date                             : UTC 2015-12-13 09:04:46
Tagged date                              : UTC 2015-12-13 09:04:46
</code></pre></p>
    <p class="toolbar">
        <a href="https://www.reddit.com/r/megalinks/comments/5x2aiv">permalink</a>
    </p>
</div>
<div class="comment" id="t1_deeo7ey">
    <p class="userinfo">
        <a
        class="toggle_hide_button"
        href="javascript:void(0)"
        onclick="toggle_collapse(this.parentElement.parentElement)">[-]
        </a>
        <a href="https://www.reddit.com/u/SubZorro">SubZorro</a>
        <span class="score"> | 2 points</span>
        <span class="timestamp"> | Mar 02 2017 09:28:08</span>
    </p>
    <div class="collapsible">
        <h5>Subtitles for this movie:</h5>
<hr>
<blockquote>
<ul>
<li>
<p><strong>Naked.Lunch.1991.DivX5.AC3.2CH.WAF</strong> - <code>2 CD</code> - <a href="http://dl.opensubtitles.org/en/download/vrf-5332edcd/sub/3128036">Download Subtitle</a></p>
</li>
<li>
<p><strong>Naked.Lunch.1991.DVDRip.DivX-QiX</strong> - <code>1 CD</code> - <a href="http://dl.opensubtitles.org/en/download/vrf-c59e4b8e/sub/3096403">Download Subtitle</a></p>
</li>
<li>
<p><strong>Naked Lunch</strong> - <code>1 CD</code> - <a href="http://dl.opensubtitles.org/en/download/vrf-52d2752b/sub/1932">Download Subtitle</a></p>
</li>
<li>
<p><strong>Naked.Lunch.1991.DVDRip.XviD.AC3.Dual.Commentary-DK</strong> - <code>1 CD</code> - <a href="http://dl.opensubtitles.org/en/download/vrf-cf2e735f/sub/3292686">Download Subtitle</a></p>
</li>
<li>
<p><strong>Naked.Lunch.1991.BluRay.720p.x264.DTS-MySiLU</strong> - <code>1 CD</code> - <a href="http://dl.opensubtitles.org/en/download/vrf-8bf059c6/sub/4443573">Download Subtitle</a></p>
</li>
<li>
<p><strong>Naked.Lunch.1991.Blu-Ray.720p.DTS.x264-beAst</strong> - <code>1 CD</code> - <a href="http://dl.opensubtitles.org/en/download/vrf-dbd8a2cf/sub/5049029">Download Subtitle</a></p>
</li>
<li>
<p><strong>Naked Lunch 1991 720p BRRip x264-PLAYNOW</strong> - <code>1 CD</code> - <a href="http://dl.opensubtitles.org/en/download/vrf-19618785/sub/5176309">Download Subtitle</a></p>
</li>
<li>
<p><strong>Naked Lunch 1991 Criterion DVDRip AC3 Commentary</strong> - <code>1 CD</code> - <a href="http://dl.opensubtitles.org/en/download/vrf-47654409/sub/3331006">Download Subtitle</a></p>
</li>
</ul>
</blockquote>
<hr>
<p>^This ^list ^of ^subtitles ^are ^taken ^from <a href="http://www.opensubtitles.org">^opensubtitles.org</a> ^| ^For ^feedback ^or ^suggestions ^contact <a href="http://www.reddit.com/message/compose/?to=indigo6alpha">^/u/indigo6alpha</a></p>
        <p class="toolbar">
            <a href="https://www.reddit.com/r/megalinks/comments/5x2aiv/_/deeo7ey">permalink</a>
        </p>
        
    </div>
</div>

<div class="comment" id="t1_deeo7gt">
    <p class="userinfo">
        <a
        class="toggle_hide_button"
        href="javascript:void(0)"
        onclick="toggle_collapse(this.parentElement.parentElement)">[-]
        </a>
        <a href="https://www.reddit.com/u/boltrop">boltrop</a>
        <span class="score"> | 2 points</span>
        <span class="timestamp"> | Mar 02 2017 09:28:13</span>
    </p>
    <div class="collapsible">
        <h3><a href="https://images-na.ssl-images-amazon.com/images/M/MV5BNGJmODg1YjAtNjJiNy00NGE2LWJhMmYtZjJhNjE2ZTk3ZjA2L2ltYWdlXkEyXkFqcGdeQXVyMTQxNzMzNDI@._V1_.jpg">Naked Lunch</a> (1991)</h3>
<p><strong>Genre</strong>: Drama</p>
<p><strong>Rating</strong>:  7.1 (37498 votes)</p>
<p><strong>Certification</strong>: R</p>
<p><strong>Runtime</strong>: 115 min</p>
<hr>
<blockquote>
<p><strong>Director(s)</strong>: <a href="https://www.imdb.com/name/nm0000343/">David Cronenberg</a></p>
<p><strong>Writer(s)</strong>: <a href="https://www.imdb.com/name/nm0123221/">William S. Burroughs</a>, <a href="https://www.imdb.com/name/nm0000343/">David Cronenberg</a></p>
<p><strong>Cast</strong>: <a href="https://www.imdb.com/name/nm0000693/">Peter Weller</a>, <a href="https://www.imdb.com/name/nm0001114/">Judy Davis</a>, <a href="https://www.imdb.com/name/nm0000453/">Ian Holm</a>, <a href="https://www.imdb.com/name/nm0001696/">Julian Sands</a></p>
<p><strong>Plot</strong>: After developing an addiction to the substance he uses to kill bugs, an exterminator accidentally murders his wife and becomes involved in a secret government plot being orchestrated by giant bugs in a port town in North Africa.</p>
</blockquote>
<hr>
<p>^This ^summary ^is ^taken ^from <a href="https://www.imdb.com/title/tt0102511/">^imdb.com</a> ^| ^For ^feedback ^or ^suggestions ^contact <a href="http://www.reddit.com/message/compose/?to=indigo6alpha">^/u/indigo6alpha</a></p>
        <p class="toolbar">
            <a href="https://www.reddit.com/r/megalinks/comments/5x2aiv/_/deeo7gt">permalink</a>
        </p>
        
    </div>
</div>
</body>

<script>
function toggle_collapse(comment_div)
{
    var button = comment_div.getElementsByClassName("toggle_hide_button")[0];
    var collapsible = comment_div.getElementsByClassName("collapsible")[0];
    if (collapsible.classList.contains("hidden"))
    {
        collapsible.classList.remove("hidden");
        button.innerText = "[-]";
    }
    else
    {
        collapsible.classList.add("hidden");
        button.innerText = "[+]";
    }
}
</script>
</html>
